# xmcd
#
# Track frame offsets:
#	182
#	19100
#	47700
#	67475
#	101500
#	115650
#	127900
#	139700
#	153350
#	164075
#	176625
#	188700
#	201300
#	214525
#	227350
#
# Disc length: 3213 seconds
#
# Revision: 3
# Processed by: cddbd v1.5.2PL0 Copyright (c) Steve Scherf et al.
# Submitted via: EasyCDDAExtractor 15.3.0.1
#
DISCID=d00c8b0f
DTITLE=Howlin' Wolf - Howlin' Wolf - The very best of Howlin' Wolf CD 2
DYEAR=1992
DGENRE=Blues
TTITLE0=All My Life
TTITLE1=Going Down Slow
TTITLE2=Howlin' For My Darlin'
TTITLE3=Forty Four
TTITLE4=I Walked From Dallas
TTITLE5=Streamline Woman
TTITLE6=Louise
TTITLE7=Ridin' In The Moonlight
TTITLE8=Hold On To Your Money
TTITLE9=My Mind Is Ramblin'
TTITLE10=The Sun Is Rising
TTITLE11=Chocolate Drop
TTITLE12=Worried About You Baby
TTITLE13=I Want Your Picture
TTITLE14=Highway 49
EXTD=
EXTT0=
EXTT1=
EXTT2=
EXTT3=
EXTT4=
EXTT5=
EXTT6=
EXTT7=
EXTT8=
EXTT9=
EXTT10=
EXTT11=
EXTT12=
EXTT13=
EXTT14=
PLAYORDER=
